<?xml version="1.0" encoding="UTF-8" standalone="no" ?>
<!DOCTYPE svg PUBLIC "-//W3C//DTD SVG 1.1//EN" "http://www.w3.org/Graphics/SVG/1.1/DTD/svg11.dtd">
<!-- THIS LOGO WAS DESIGNED BY DALL-E at https://openai.com/ -->
<svg xmlns="http://www.w3.org/2000/svg" xmlns:xlink="http://www.w3.org/1999/xlink" version="1.1" width="500" height="500" viewBox="0 0 500 500" xml:space="preserve">
<desc>Created with Fabric.js 4.6.0</desc>
<defs>
</defs>
<g transform="matrix(1 0 0 1 261.04 417.29)" id="JvG8weNHjFf9HnXfD_4SI"  >
<path style="stroke: rgb(0,0,0); stroke-width: 0; stroke-dasharray: none; stroke-linecap: butt; stroke-dashoffset: 0; stroke-linejoin: miter; stroke-miterlimit: 4; fill: currentcolor; fill-rule: nonzero; opacity: 1;" vector-effect="non-scaling-stroke"  transform=" translate(0, 0)" d="M -163.125 -8.95833 C -166.11654 -8.95833 -168.54167 -6.53321 -168.54167 -3.5416600000000003 L -168.54167 -3.5416600000000003 L -168.54167 3.1250099999999996 L -168.54167 3.1250099999999996 L -168.54167 3.1250099999999996 C -168.54167 6.34667 -165.93 8.95834 -162.70834000000002 8.95834 L 159.37498999999997 8.95834 L 159.37498999999997 8.95834 C 164.43759999999997 8.95834 168.54165999999998 4.85428 168.54165999999998 -0.20833000000000013 L 168.54165999999998 -0.20833000000000013 L 168.54165999999998 -0.20833000000000013 L 168.54165999999998 -0.20833000000000013 C 168.54165999999998 -5.04082 164.62415 -8.95833 159.79165999999998 -8.95833 z" stroke-linecap="round" />
</g>
<g transform="matrix(1 0 0 1 249.58 249.17)" id="zOhBgPEMVxYbKPcgdc9MC"  >
<path style="stroke: rgb(0,0,0); stroke-width: 0; stroke-dasharray: none; stroke-linecap: butt; stroke-dashoffset: 0; stroke-linejoin: miter; stroke-miterlimit: 4; fill: currentcolor; fill-rule: nonzero; opacity: 1;" vector-effect="non-scaling-stroke"  transform=" translate(0, 0)" d="M -134.58333 -234.58333 L -141.93216999999999 -234.03608 L -141.93216999999999 -234.03608 C -181.96080999999998 -231.05522 -212.91666999999998 -197.70843 -212.91666999999998 -157.56895 L -212.91666999999998 174.45847 L -212.91666999999998 174.45847 C -212.91666999999998 206.1823 -188.32023999999998 232.47309 -156.66666999999998 234.58333 L -156.66666999999998 234.58333 L 184.45792000000003 234.58333 L 184.45792000000003 234.58333 C 193.77836000000002 234.58333 202.09256000000002 228.72415999999998 205.22736000000003 219.94671 L 206.24999000000003 217.08333 L 206.24999000000003 214.2132 L 206.24999000000003 214.2132 C 206.24999000000003 208.89477 201.93855000000002 204.58333 196.62012000000001 204.58333 L 194.16666 204.58333 L -153.74130999999997 204.58333 L -153.74130999999997 204.58333 C -155.35693999999998 204.58333 -156.66667999999996 205.89306 -156.66667999999996 207.50869999999998 L -156.66667999999996 209.58333 L -156.66667999999996 218.75 L -160.00000999999995 218.75 L -161.49367999999996 218.32768 L -161.49367999999996 218.32768 C -180.39615999999995 212.98325999999997 -194.55793999999995 197.27087999999998 -197.91666999999995 177.91665999999998 L -197.91666999999995 177.91665999999998 L -197.91666999999995 177.91665999999998 L -197.91666999999995 177.91665999999998 C -199.59448999999995 165.96218 -196.00994999999995 153.86718 -188.08938999999995 144.75732999999997 C -180.16882999999996 135.64747999999997 -168.68942999999996 130.41665999999998 -156.61777999999995 130.41665999999998 L 181.25000000000003 130.41665999999998 L 184.42296000000002 129.87391999999997 L 184.42296000000002 129.87391999999997 C 200.88221000000001 127.05851999999997 212.91666 112.79075999999998 212.91666 96.09244999999997 L 212.91666 -203.75 L 212.21071 -207.01501 L 212.21071 -207.01501 C 208.73245 -223.10197 194.50332 -234.58334 178.04462 -234.58334 z" stroke-linecap="round" />
</g>
<g transform="matrix(1 0 0 1 272.14 184.74)" id="gFfFunqoZplNotfqHn9Jp"  >
<path style="stroke: rgb(53,53,53); stroke-width: 1; stroke-dasharray: none; stroke-linecap: butt; stroke-dashoffset: 0; stroke-linejoin: miter; stroke-miterlimit: 4; fill: rgb(255,255,255); fill-rule: nonzero; opacity: 1;" vector-effect="non-scaling-stroke"  transform=" translate(0, 0)" d="M 91.9986 -125.15566 C 75.28509 -125.15566 58.938509999999994 -120.25413999999999 44.98249 -111.05789 L 32.86378 -103.07232 L 22.10165 -105.96272 L 22.10165 -105.96272 C -16.995580000000004 -116.46312 -58.75582000000001 -107.81696000000001 -90.46955 -82.65565000000001 L -90.46955 -82.65565000000001 L -90.46955 -82.65565000000001 L -90.46955 -82.65565000000001 C -125.32135 -56.96199000000001 -142.22656999999998 -13.470780000000005 -133.87664999999998 29.015569999999997 L -133.38621999999998 31.511009999999995 L -132.23524999999998 35.169439999999994 L -132.23524999999998 35.169439999999994 C -118.49623999999997 78.83988 -82.62559999999998 111.94677 -37.99594999999998 122.14783 L -37.13621999999998 122.34434 L -31.40171999999998 123.35470000000001 L -31.40171999999998 123.35470000000001 C 17.672090000000022 132.00104000000002 66.90444000000002 108.98026000000002 91.73377000000002 65.77723 L 92.03045000000002 65.26100000000001 L 94.94171000000001 59.36666000000001 L 94.94171000000001 59.36666000000001 C 108.61235000000002 31.68812000000001 109.37664000000001 -0.6114999999999924 97.03045000000002 -28.905669999999986 L 97.03045000000002 -28.905669999999986 L 119.73917000000002 -50.37809999999999 L 119.73917000000002 -50.37809999999999 C 127.15231000000001 -57.38765999999999 132.43921 -66.34508999999998 134.99324000000001 -76.22261999999999 L 135.36378000000002 -77.65566 L 135.42000000000002 -79.05161 C 135.60977000000003 -83.68064 136.58235000000002 -88.45651 135.42000000000002 -92.94125 C 130.82198000000002 -110.68185 115.59075000000001 -122.32988999999999 97.47271 -125.08801 L 97.03045 -125.15566 z" stroke-linecap="round" />
</g>
<g transform="matrix(1 0 0 1 267.88 185.31)" id="hYnSyxcbvLQ0CF5MzjDos"  >
<path style="stroke: rgb(0,0,0); stroke-width: 0; stroke-dasharray: none; stroke-linecap: butt; stroke-dashoffset: 0; stroke-linejoin: miter; stroke-miterlimit: 4; fill: rgb(230,87,26); fill-rule: nonzero; opacity: 1;" vector-effect="non-scaling-stroke"  transform=" translate(0, 0)" d="M 0.45744 81.77813 L -2.30052 85.65906000000001 L -2.30052 85.65906000000001 C -4.904450000000001 89.32324000000001 -8.93173 91.72070000000001 -13.394070000000001 92.26310000000001 C -17.85641 92.80549 -22.340760000000003 91.44262 -25.74666 88.50892 L -31.625899999999998 83.44479 L -61.20923 49.278119999999994 L -101.63373999999999 10.279409999999991 L -101.63373999999999 10.279409999999991 C -108.08236 4.058239999999992 -108.96875999999999 -5.9604800000000075 -103.7126 -13.217230000000008 L -103.70922999999999 -13.221880000000008 L -96.64720999999999 -20.30521000000001 L -92.33109999999999 -22.275410000000008 L -92.33109999999999 -22.275410000000008 C -86.00541 -25.162940000000006 -78.59996999999998 -24.302620000000008 -73.10471999999999 -20.04181000000001 L -24.542559999999987 17.61145999999999 L 7.176990000000014 -32.054440000000014 L 29.083730000000013 -55.91708000000001 L 29.083730000000013 -55.91708000000001 C 46.79733000000002 -75.21220000000001 70.54303000000002 -87.91384000000001 96.42503000000002 -91.93815000000001 L 98.70770000000002 -92.29307000000001 L 98.70770000000002 -92.29307000000001 C 101.17423000000002 -92.67658000000002 103.66579000000002 -91.77372000000001 105.31407000000002 -89.89914000000002 C 106.96235000000001 -88.02456000000002 107.53898000000001 -85.43795000000001 106.84302000000001 -83.04077000000002 L 106.29076 -81.13855000000002 L 106.29076 -81.13855000000002 L 106.29076 -81.13855000000002 C 69.02677 -46.784240000000025 39.34503000000001 -5.028990000000022 19.144930000000002 41.45518999999997 L 12.124090000000002 57.61144999999998 z" stroke-linecap="round" />
</g>
</svg>